<?xml version="1.0" encoding="UTF-8" standalone="no"?><!DOCTYPE svg PUBLIC "-//W3C//DTD SVG 1.1//EN" "http://www.w3.org/Graphics/SVG/1.1/DTD/svg11.dtd"><svg width="100%" height="100%" viewBox="0 0 3919 3919" version="1.1" xmlns="http://www.w3.org/2000/svg" xmlns:xlink="http://www.w3.org/1999/xlink" xml:space="preserve" xmlns:serif="http://www.serif.com/" style="fill-rule:evenodd;clip-rule:evenodd;stroke-linejoin:round;stroke-miterlimit:2;"><g><path d="M1853.334,2926.921c227.707,-617.686 886.354,-77.115 1082.067,-660.13c81.597,-243.073 72.519,-270.873 65.047,-293.753c-41.8,-128.001 -565.906,-55.971 -742.131,-185.711c-61.298,-45.129 -192.434,-331.922 -689.365,-302.175c-680.637,40.744 -651.941,548.267 -929.601,974.954c-122.048,187.554 -343.741,371.362 -347.798,284.42c-2.751,-58.941 -0.646,-2072.507 -0.457,-2252.725c0.322,-307.935 -28.294,-376.96 130.784,-380.423c558.636,-12.158 633.524,26.042 682.281,50.914c337.745,172.284 257.044,466.409 266.286,1071.008c1.37,89.603 138.332,48.835 226.571,48.44c531.517,-2.38 668.747,237.773 744.6,311.64c56.444,54.966 178.826,72.81 203.575,55.28c47.862,-33.902 -29.908,-1022.275 45.216,-1226.701c124.289,-338.217 429.331,-317.629 937.065,-310.41c127.253,1.809 99.461,170.68 99.357,212.392c-7.734,3101.981 3.776,3101.582 0.34,3371.261c-1.721,135.056 -106.421,110.063 -379.59,110.166c-628.567,0.237 -636.223,3.114 -666.173,-30.754c-57.005,-64.46 8.936,-720.051 -38.494,-774.27c-33.256,-38.016 -441.486,-11.446 -666.148,-19.329c-37.41,-1.313 -26.251,-17.439 -23.429,-54.093Z" style="fill:#142937;"/><path d="M1547.608,2224.443c112.3,421.01 -2.005,428.054 3.295,1358.831c0.75,131.792 23.765,221.096 -65.895,222.206c-81.596,1.01 -951.554,11.78 -1020.02,-2.92c-110.969,-23.825 4.088,-128.724 12.165,-136.088c768.266,-700.441 1044.754,-943.582 883.459,-1720.148c-2.976,-14.329 18.53,-93.186 75.777,4.224c53.424,90.905 104.096,251.344 111.218,273.895Z" style="fill:#142938;"/></g></svg>