<?xml version="1.0" encoding="UTF-8" standalone="no"?><!DOCTYPE svg PUBLIC "-//W3C//DTD SVG 1.1//EN" "http://www.w3.org/Graphics/SVG/1.1/DTD/svg11.dtd"><svg width="100%" height="100%" viewBox="0 0 3919 3919" version="1.1" xmlns="http://www.w3.org/2000/svg" xmlns:xlink="http://www.w3.org/1999/xlink" xml:space="preserve" xmlns:serif="http://www.serif.com/" style="fill-rule:evenodd;clip-rule:evenodd;stroke-linejoin:round;stroke-miterlimit:2;"><g><path d="M384.032,2069.825c24.485,-66.419 95.308,-8.292 116.353,-70.983c8.774,-26.137 7.798,-29.126 6.994,-31.587c-4.495,-13.764 -60.851,-6.018 -79.8,-19.969c-6.591,-4.853 -20.692,-35.691 -74.126,-32.492c-73.188,4.381 -70.102,58.954 -99.958,104.835c-13.124,20.167 -36.962,39.932 -37.398,30.583c-0.296,-6.338 -0.069,-222.853 -0.049,-242.231c0.035,-33.112 -3.042,-40.534 14.063,-40.906c60.069,-1.307 68.122,2.8 73.364,5.475c36.317,18.525 27.639,50.152 28.633,115.163c0.147,9.635 14.875,5.251 24.363,5.209c57.153,-0.256 71.909,25.567 80.065,33.51c6.069,5.91 19.229,7.829 21.89,5.944c5.147,-3.645 -3.216,-109.923 4.862,-131.905c13.365,-36.368 46.165,-34.154 100.761,-33.378c13.683,0.195 10.695,18.353 10.684,22.838c-0.832,333.55 0.406,333.507 0.037,362.505c-0.185,14.522 -11.443,11.835 -40.817,11.846c-67.589,0.025 -68.412,0.335 -71.632,-3.307c-6.13,-6.931 0.961,-77.426 -4.139,-83.256c-3.576,-4.088 -47.472,-1.231 -71.63,-2.078c-4.023,-0.141 -2.823,-1.875 -2.519,-5.816Z" style="fill:#142937;"/><path d="M351.158,1994.289c12.075,45.27 -0.216,46.028 0.354,146.113c0.081,14.171 2.555,23.774 -7.086,23.893c-8.774,0.109 -102.319,1.267 -109.681,-0.314c-11.932,-2.562 0.44,-13.841 1.308,-14.633c82.61,-75.317 112.34,-101.462 94.997,-184.964c-0.32,-1.541 1.993,-10.02 8.148,0.454c5.745,9.775 11.193,27.027 11.959,29.451Z" style="fill:#142938;"/></g><g><path d="M490.57,2162.856l0,-389.171l72.275,0l0,389.171l-72.275,0Zm-273.532,0l0,-389.171l72.275,0l0,389.171l-72.275,0Zm66.159,-166.788l0,-61.711l212.932,0l0,61.711l-212.932,0Z" style="fill:#162a38;fill-opacity:0;fill-rule:nonzero;"/><path d="M794.123,2166.747c-30.392,0 -57.449,-6.579 -81.17,-19.737c-23.721,-13.158 -42.438,-31.226 -56.152,-54.206c-13.714,-22.98 -20.57,-49.11 -20.57,-78.39c0,-29.651 6.857,-55.874 20.57,-78.668c13.714,-22.794 32.431,-40.678 56.152,-53.65c23.721,-12.972 50.778,-19.459 81.17,-19.459c30.763,0 58.098,6.486 82.004,19.459c23.906,12.972 42.623,30.763 56.152,53.372c13.528,22.609 20.292,48.924 20.292,78.946c0,29.28 -6.764,55.411 -20.292,78.39c-13.528,22.98 -32.246,41.048 -56.152,54.206c-23.906,13.158 -51.241,19.737 -82.004,19.737Zm0,-59.488c17.049,0 32.246,-3.706 45.589,-11.119c13.343,-7.413 23.814,-18.161 31.412,-32.246c7.598,-14.084 11.397,-30.578 11.397,-49.48c0,-19.273 -3.799,-35.859 -11.397,-49.758c-7.598,-13.899 -18.069,-24.555 -31.412,-31.968c-13.343,-7.413 -28.354,-11.119 -45.033,-11.119c-17.049,0 -32.153,3.706 -45.311,11.119c-13.158,7.413 -23.628,18.069 -31.412,31.968c-7.783,13.899 -11.675,30.485 -11.675,49.758c0,18.903 3.892,35.396 11.675,49.48c7.783,14.084 18.254,24.833 31.412,32.246c13.158,7.413 28.076,11.119 44.755,11.119Z" style="fill:#142938;fill-rule:nonzero;"/><path d="M1144.933,2166.747c-25.203,0 -47.442,-4.726 -66.715,-14.177c-19.273,-9.451 -34.284,-23.906 -45.033,-43.365c-10.749,-19.459 -16.123,-44.013 -16.123,-73.664l0,-169.567l69.495,0l0,160.116c0,26.686 6.023,46.608 18.069,59.766c12.046,13.158 29.188,19.737 51.426,19.737c16.308,0 30.485,-3.336 42.531,-10.007c12.046,-6.672 21.497,-16.679 28.354,-30.022c6.857,-13.343 10.285,-29.836 10.285,-49.48l0,-150.109l69.495,0l0,296.882l-66.159,0l0,-80.058l11.675,24.462c-10.007,19.273 -24.647,34.006 -43.921,44.199c-19.273,10.193 -40.4,15.289 -63.379,15.289Z" style="fill:#142938;fill-rule:nonzero;"/><path d="M1397.894,2162.856l0,-296.882l66.159,0l0,80.058l-11.675,-24.462c10.378,-18.903 25.481,-33.45 45.311,-43.643c19.829,-10.193 42.716,-15.289 68.661,-15.289c23.721,0 44.94,4.633 63.657,13.899c18.717,9.266 33.45,23.443 44.199,42.531c10.749,19.088 16.123,43.643 16.123,73.664l0,170.123l-69.495,0l0,-161.228c0,-26.315 -6.208,-45.959 -18.625,-58.932c-12.416,-12.972 -29.744,-19.459 -51.982,-19.459c-16.308,0 -30.763,3.336 -43.365,10.007c-12.602,6.672 -22.331,16.586 -29.188,29.744c-6.857,13.158 -10.285,29.744 -10.285,49.758l0,150.109l-69.495,0Z" style="fill:#142938;fill-rule:nonzero;"/><path d="M1904.928,2166.747c-28.539,0 -54.206,-6.394 -77,-19.181c-22.794,-12.787 -40.678,-30.485 -53.65,-53.094c-12.972,-22.609 -19.459,-49.295 -19.459,-80.058c0,-30.763 6.486,-57.449 19.459,-80.058c12.972,-22.609 30.856,-40.214 53.65,-52.816c22.794,-12.602 48.461,-18.903 77,-18.903c24.833,0 47.071,5.467 66.715,16.401c19.644,10.934 35.211,27.52 46.701,49.758c11.49,22.238 17.235,50.778 17.235,85.618c0,34.469 -5.56,62.916 -16.679,85.34c-11.119,22.424 -26.501,39.195 -46.145,50.314c-19.644,11.119 -42.253,16.679 -67.827,16.679Zm8.339,-59.488c16.679,0 31.597,-3.706 44.755,-11.119c13.158,-7.413 23.721,-18.161 31.69,-32.246c7.969,-14.084 11.953,-30.578 11.953,-49.48c0,-19.273 -3.984,-35.859 -11.953,-49.758c-7.969,-13.899 -18.532,-24.555 -31.69,-31.968c-13.158,-7.413 -28.076,-11.119 -44.755,-11.119c-16.679,0 -31.597,3.706 -44.755,11.119c-13.158,7.413 -23.721,18.069 -31.69,31.968c-7.969,13.899 -11.953,30.485 -11.953,49.758c0,18.903 3.984,35.396 11.953,49.48c7.969,14.084 18.532,24.833 31.69,32.246c13.158,7.413 28.076,11.119 44.755,11.119Zm90.065,55.596l0,-70.051l2.78,-78.946l-5.56,-78.946l0,-184.578l68.939,0l0,412.521l-66.159,0Z" style="fill:#142938;fill-rule:nonzero;"/><path d="M2288.539,2168.415c-30.392,0 -59.488,-4.355 -87.285,-13.065c-27.798,-8.71 -49.851,-19.922 -66.159,-33.635l25.018,-56.152c15.567,12.231 34.84,22.424 57.82,30.578c22.98,8.154 46.515,12.231 70.607,12.231c20.385,0 36.879,-2.224 49.48,-6.672c12.602,-4.448 21.868,-10.471 27.798,-18.069c5.93,-7.598 8.895,-16.215 8.895,-25.852c0,-11.86 -4.262,-21.404 -12.787,-28.632c-8.525,-7.227 -19.551,-12.972 -33.08,-17.235c-13.528,-4.262 -28.539,-8.247 -45.033,-11.953c-16.493,-3.706 -32.987,-8.061 -49.48,-13.065c-16.493,-5.004 -31.504,-11.49 -45.033,-19.459c-13.528,-7.969 -24.555,-18.625 -33.08,-31.968c-8.525,-13.343 -12.787,-30.392 -12.787,-51.148c0,-21.126 5.652,-40.492 16.957,-58.098c11.304,-17.605 28.539,-31.69 51.704,-42.253c23.165,-10.563 52.538,-15.845 88.119,-15.845c23.35,0 46.515,2.965 69.495,8.895c22.98,5.93 42.994,14.455 60.044,25.574l-22.794,56.152c-17.42,-10.378 -35.396,-18.069 -53.928,-23.072c-18.532,-5.004 -36.323,-7.505 -53.372,-7.505c-20.015,0 -36.23,2.409 -48.646,7.227c-12.416,4.818 -21.497,11.119 -27.242,18.903c-5.745,7.783 -8.617,16.679 -8.617,26.686c0,11.86 4.17,21.404 12.509,28.632c8.339,7.227 19.273,12.88 32.802,16.957c13.528,4.077 28.632,8.061 45.311,11.953c16.679,3.892 33.265,8.247 49.758,13.065c16.493,4.818 31.504,11.119 45.033,18.903c13.528,7.783 24.462,18.347 32.802,31.69c8.339,13.343 12.509,30.207 12.509,50.592c0,20.756 -5.652,39.936 -16.957,57.542c-11.304,17.605 -28.632,31.69 -51.982,42.253c-23.35,10.563 -52.816,15.845 -88.397,15.845Z" style="fill:#5e845e;fill-rule:nonzero;"/><path d="M2622.67,2166.747c-32.616,0 -57.82,-8.432 -75.61,-25.296c-17.791,-16.864 -26.686,-41.79 -26.686,-74.776l0,-266.304l69.495,0l0,264.636c0,14.084 3.614,25.018 10.841,32.802c7.227,7.783 17.327,11.675 30.3,11.675c15.567,0 28.539,-4.077 38.917,-12.231l19.459,49.48c-8.154,6.672 -18.161,11.675 -30.022,15.011c-11.86,3.336 -24.092,5.004 -36.693,5.004Zm-151.221,-245.178l0,-55.596l197.921,0l0,55.596l-197.921,0Z" style="fill:#5e845e;fill-rule:nonzero;"/><path d="M2918.996,2162.856l0,-60.044l-3.892,-12.787l0,-105.076c0,-20.385 -6.116,-36.23 -18.347,-47.534c-12.231,-11.304 -30.763,-16.957 -55.596,-16.957c-16.679,0 -33.08,2.594 -49.202,7.783c-16.123,5.189 -29.744,12.416 -40.863,21.682l-27.242,-50.592c15.937,-12.231 34.933,-21.404 56.986,-27.52c22.053,-6.116 44.94,-9.173 68.661,-9.173c42.994,0 76.259,10.285 99.795,30.856c23.536,20.57 35.303,52.353 35.303,95.347l0,174.015l-65.603,0Zm-93.401,3.892c-22.238,0 -41.697,-3.799 -58.376,-11.397c-16.679,-7.598 -29.558,-18.161 -38.639,-31.69c-9.081,-13.528 -13.621,-28.817 -13.621,-45.867c0,-16.679 3.984,-31.69 11.953,-45.033c7.969,-13.343 21.034,-23.906 39.195,-31.69c18.161,-7.783 42.253,-11.675 72.275,-11.675l86.174,0l0,46.145l-81.17,0c-23.721,0 -39.658,3.799 -47.812,11.397c-8.154,7.598 -12.231,16.957 -12.231,28.076c0,12.602 5.004,22.609 15.011,30.022c10.007,7.413 23.906,11.119 41.697,11.119c17.049,0 32.338,-3.892 45.867,-11.675c13.528,-7.783 23.258,-19.273 29.188,-34.469l11.675,41.697c-6.672,17.42 -18.625,30.948 -35.859,40.585c-17.235,9.637 -39.01,14.455 -65.325,14.455Z" style="fill:#5e845e;fill-rule:nonzero;"/><path d="M3210.318,2166.747c-31.134,0 -58.839,-6.579 -83.116,-19.737c-24.277,-13.158 -43.272,-31.226 -56.986,-54.206c-13.714,-22.98 -20.57,-49.11 -20.57,-78.39c0,-29.651 6.857,-55.874 20.57,-78.668c13.714,-22.794 32.709,-40.678 56.986,-53.65c24.277,-12.972 51.982,-19.459 83.116,-19.459c28.91,0 54.391,5.838 76.444,17.513c22.053,11.675 38.824,28.817 50.314,51.426l-53.372,31.134c-8.895,-14.084 -19.737,-24.462 -32.524,-31.134c-12.787,-6.672 -26.593,-10.007 -41.419,-10.007c-17.049,0 -32.431,3.706 -46.145,11.119c-13.714,7.413 -24.462,18.069 -32.246,31.968c-7.783,13.899 -11.675,30.485 -11.675,49.758c0,19.273 3.892,35.859 11.675,49.758c7.783,13.899 18.532,24.555 32.246,31.968c13.714,7.413 29.095,11.119 46.145,11.119c14.826,0 28.632,-3.336 41.419,-10.007c12.787,-6.672 23.628,-17.049 32.524,-31.134l53.372,31.134c-11.49,22.238 -28.261,39.38 -50.314,51.426c-22.053,12.046 -47.534,18.069 -76.444,18.069Z" style="fill:#5e845e;fill-rule:nonzero;"/><path d="M3451.048,2096.697l1.668,-87.285l155.112,-143.437l83.394,0l-131.762,132.318l-36.693,30.578l-71.719,67.827Zm-56.708,66.159l0,-412.521l69.495,0l0,412.521l-69.495,0Zm224.051,0l-108.412,-133.986l43.921,-55.596l148.997,189.582l-84.506,0Z" style="fill:#5e845e;fill-rule:nonzero;"/></g></svg>